<svg version="1.1" xmlns="http://www.w3.org/2000/svg" xmlns:xlink="http://www.w3.org/1999/xlink" width="277.95504" height="70.49801" viewBox="0,0,277.95504,70.49801"><g transform="translate(-101.54496,-143.28311)"><g data-paper-data="{&quot;isPaintingLayer&quot;:true}" fill-rule="nonzero" stroke="#5500ff" stroke-linejoin="miter" stroke-miterlimit="10" stroke-dasharray="" stroke-dashoffset="0" style="mix-blend-mode: normal"><text transform="translate(102.5,201.36562) scale(0.95504,0.95504)" font-size="40" xml:space="preserve" fill="#5500ff" fill-rule="nonzero" stroke="#5500ff" stroke-width="2" stroke-linecap="butt" stroke-linejoin="miter" stroke-miterlimit="10" stroke-dasharray="" stroke-dashoffset="0" font-family="Sans Serif" font-weight="normal" text-anchor="start" style="mix-blend-mode: normal"><tspan x="0" dy="0">ManulParty</tspan></text><path d="M377.5,188.36563c0,12.56448 -11.6406,22.75 -26,22.75c-14.3594,0 -26,-10.18552 -26,-22.75c0,-12.56448 11.6406,-22.75 26,-22.75c14.3594,0 26,10.18552 26,22.75z" fill="none" stroke-width="4" stroke-linecap="butt"/><path d="M348.5,182.11563c0,3.58985 -2.91015,6.5 -6.5,6.5c-3.58985,0 -6.5,-2.91015 -6.5,-6.5c0,-3.58985 2.91015,-6.5 6.5,-6.5c3.58985,0 6.5,2.91015 6.5,6.5z" fill="none" stroke-width="4" stroke-linecap="butt"/><path d="M371.5,183.61563c0,3.86599 -3.13401,7 -7,7c-3.86599,0 -7,-3.13401 -7,-7c0,-3.86599 3.13401,-7 7,-7c3.86599,0 7,3.13401 7,7z" fill="none" stroke-width="4" stroke-linecap="butt"/><path d="M357.62942,189.77903c0,2.68562 -4.61961,8.26667 -4.61961,8.26667c0,0 -5.59216,-5.58105 -5.59216,-8.26667c0,-2.68562 5.59216,-1.45882 5.59216,-1.45882c0,0 4.61961,-1.2268 4.61961,1.45882z" fill="none" stroke-width="4" stroke-linecap="butt"/><path d="M352.76667,198.0457v8.26667" fill="none" stroke-width="4" stroke-linecap="round"/><path d="M344.5,201.9359c0,0 2.6716,8.73125 4.38397,6.59152c1.97894,-2.47284 8.70401,0.45009 10.71841,-1.02815c2.11545,-1.55238 2.40351,-6.04964 2.40351,-6.04964" fill="none" stroke-width="4" stroke-linecap="round"/><path d="M329.59486,164.24166l3.06032,-16.26759l10.47861,8.67171" fill="none" stroke-width="4" stroke-linecap="round"/><path d="M364.5,158.61563l11,-11l2,17" fill="none" stroke-width="4" stroke-linecap="round"/></g></g></svg>