<svg version="1.1" xmlns="http://www.w3.org/2000/svg" xmlns:xlink="http://www.w3.org/1999/xlink" width="228.91124" height="91.63248" viewBox="0,0,228.91124,91.63248"><g transform="translate(-131.24408,-144.60085)"><g data-paper-data="{&quot;isPaintingLayer&quot;:true}" fill-rule="nonzero" stroke-linejoin="miter" stroke-miterlimit="10" stroke-dasharray="" stroke-dashoffset="0" style="mix-blend-mode: normal"><text transform="translate(148.46792,184.52059) scale(0.63232,0.63232)" font-size="40" xml:space="preserve" fill="#5500ff" fill-rule="nonzero" stroke="#5500ff" stroke-width="2" stroke-linecap="butt" stroke-linejoin="miter" stroke-miterlimit="10" stroke-dasharray="" stroke-dashoffset="0" font-family="Sans Serif" font-weight="normal" text-anchor="start" style="mix-blend-mode: normal"><tspan x="0" dy="0">ManulParty</tspan></text><path d="M330.54206,175.91345c0,8.31879 -7.7071,15.0625 -17.21428,15.0625c-9.50719,0 -17.21428,-6.74371 -17.21428,-15.0625c0,-8.31879 7.7071,-15.0625 17.21428,-15.0625c9.50719,0 17.21428,6.74371 17.21428,15.0625z" fill="none" stroke="#5500ff" stroke-width="4" stroke-linecap="butt"/><path d="M311.34151,171.7754c0,2.3768 -1.92677,4.30357 -4.30357,4.30357c-2.3768,0 -4.30357,-1.92677 -4.30357,-4.30357c0,-2.3768 1.92677,-4.30357 4.30357,-4.30357c2.3768,0 4.30357,1.92677 4.30357,4.30357z" fill="none" stroke="#5500ff" stroke-width="4" stroke-linecap="butt"/><path d="M326.56953,172.76853c0,2.55963 -2.07499,4.63462 -4.63462,4.63462c-2.55963,0 -4.63462,-2.07499 -4.63462,-4.63462c0,-2.55963 2.07499,-4.63462 4.63462,-4.63462c2.55963,0 4.63462,2.07499 4.63462,4.63462z" fill="none" stroke="#5500ff" stroke-width="4" stroke-linecap="butt"/><path d="M317.38599,176.84925c0,1.77812 -3.05859,5.47326 -3.05859,5.47326c0,0 -3.7025,-3.69514 -3.7025,-5.47326c0,-1.77812 3.7025,-0.96587 3.7025,-0.96587c0,0 3.05859,-0.81225 3.05859,0.96587z" fill="none" stroke="#5500ff" stroke-width="4" stroke-linecap="butt"/><path d="M314.16642,182.32251v5.47326" fill="none" stroke="#5500ff" stroke-width="4" stroke-linecap="round"/><path d="M320.2836,184.5762c0,0 -0.19072,2.97758 -1.59133,4.00539c-1.33371,0.97872 -5.78629,-0.95651 -7.09653,0.68073c-1.13374,1.41669 -2.90257,-4.36416 -2.90257,-4.36416" fill="none" stroke="#5500ff" stroke-width="4" stroke-linecap="round"/><path d="M298.82465,159.94126l2.0262,-10.77057l6.93776,5.74144" fill="none" stroke="#5500ff" stroke-width="4" stroke-linecap="round"/><path d="M321.93492,156.21633l7.28297,-7.28297l1.32418,11.25549" fill="none" stroke="#5500ff" stroke-width="4" stroke-linecap="round"/><text transform="translate(133.01669,220.27057) scale(0.8863,0.8863)" font-size="40" xml:space="preserve" fill="#001cff" fill-rule="nonzero" stroke="#001bff" stroke-width="4" stroke-linecap="butt" stroke-linejoin="miter" stroke-miterlimit="10" stroke-dasharray="" stroke-dashoffset="0" font-family="Sans Serif" font-weight="normal" text-anchor="start" style="mix-blend-mode: normal"><tspan x="0" dy="0">MAP UPDATE</tspan></text><text transform="translate(137.29393,223.82506) scale(0.88631,0.88631)" font-size="40" xml:space="preserve" fill="#ff0000" fill-rule="nonzero" stroke="#ff0000" stroke-width="4" stroke-linecap="butt" stroke-linejoin="miter" stroke-miterlimit="10" stroke-dasharray="" stroke-dashoffset="0" font-family="Sans Serif" font-weight="normal" text-anchor="start" style="mix-blend-mode: normal"><tspan x="0" dy="0">MAP UPDATE</tspan></text></g></g></svg>